<svg xmlns="http://www.w3.org/2000/svg" xmlns:xlink="http://www.w3.org/1999/xlink" width="1080" zoomAndPan="magnify" viewBox="0 0 810 809.999993" height="1080" preserveAspectRatio="xMidYMid meet" version="1.0"><path fill="#f1ae2b" d="M 299.347656 246.523438 C 153.472656 246.523438 35.21875 364.777344 35.21875 510.652344 C 35.21875 656.527344 153.472656 774.78125 299.347656 774.78125 C 366.34375 774.78125 427.484375 749.859375 474.054688 708.753906 C 481.34375 702.320312 492.472656 703.011719 498.90625 710.304688 C 505.34375 717.597656 504.652344 728.722656 497.359375 735.160156 C 444.597656 781.722656 375.253906 810 299.347656 810 C 134.023438 810 0 675.976562 0 510.652344 C 0 345.328125 134.023438 211.304688 299.347656 211.304688 C 344.9375 211.304688 388.191406 221.507812 426.910156 239.769531 C 435.707031 243.917969 439.472656 254.414062 435.320312 263.207031 C 431.171875 272.003906 420.683594 275.769531 411.886719 271.621094 C 377.765625 255.527344 339.632812 246.523438 299.347656 246.523438 Z M 299.347656 246.523438 " fill-opacity="1" fill-rule="evenodd"/><path fill="#f1ae2b" d="M 299.347656 316.957031 C 192.371094 316.957031 105.652344 403.675781 105.652344 510.652344 C 105.652344 617.628906 192.371094 704.347656 299.347656 704.347656 C 371.019531 704.347656 433.625 665.429688 467.140625 607.484375 C 472.011719 599.070312 482.78125 596.191406 491.203125 601.0625 C 499.617188 605.933594 502.496094 616.703125 497.625 625.121094 C 458.074219 693.496094 384.097656 739.566406 299.347656 739.566406 C 172.921875 739.566406 70.433594 637.078125 70.433594 510.652344 C 70.433594 384.226562 172.921875 281.738281 299.347656 281.738281 C 326.070312 281.738281 351.761719 286.324219 375.648438 294.769531 C 384.820312 298.011719 389.625 308.070312 386.382812 317.238281 C 383.144531 326.410156 373.082031 331.214844 363.914062 327.972656 C 343.742188 320.84375 322.019531 316.957031 299.347656 316.957031 Z M 299.347656 316.957031 " fill-opacity="1" fill-rule="evenodd"/><path fill="#f1ae2b" d="M 259.972656 405 C 284.757812 392.605469 313.933594 392.605469 338.722656 405 L 377.65625 424.46875 C 386.355469 428.816406 389.882812 439.394531 385.53125 448.09375 C 381.183594 456.789062 370.605469 460.316406 361.90625 455.964844 L 322.972656 436.5 C 308.101562 429.0625 290.59375 429.0625 275.722656 436.5 L 260.851562 443.9375 C 252.070312 448.328125 246.519531 457.300781 246.519531 467.121094 C 246.519531 481.4375 258.128906 493.042969 272.445312 493.042969 L 326.25 493.042969 C 360.015625 493.042969 387.390625 520.417969 387.390625 554.183594 C 387.390625 577.339844 374.308594 598.511719 353.59375 608.871094 L 338.722656 616.304688 C 313.933594 628.699219 284.757812 628.699219 259.972656 616.304688 L 221.039062 596.835938 C 212.339844 592.488281 208.8125 581.910156 213.164062 573.210938 C 217.511719 564.511719 228.089844 560.988281 236.789062 565.335938 L 275.722656 584.804688 C 290.59375 592.242188 308.101562 592.242188 322.972656 584.804688 L 337.84375 577.367188 C 346.628906 572.976562 352.175781 564.003906 352.175781 554.183594 C 352.175781 539.863281 340.566406 528.261719 326.25 528.261719 L 272.445312 528.261719 C 238.675781 528.261719 211.304688 500.886719 211.304688 467.121094 C 211.304688 443.964844 224.386719 422.792969 245.101562 412.433594 Z M 259.972656 405 " fill-opacity="1" fill-rule="evenodd"/><path fill="#f1ae2b" d="M 299.347656 352.175781 C 309.074219 352.175781 316.957031 360.058594 316.957031 369.78125 L 316.957031 651.523438 C 316.957031 661.246094 309.074219 669.128906 299.347656 669.128906 C 289.621094 669.128906 281.738281 661.246094 281.738281 651.523438 L 281.738281 369.78125 C 281.738281 360.058594 289.621094 352.175781 299.347656 352.175781 Z M 299.347656 352.175781 " fill-opacity="1" fill-rule="evenodd"/><path fill="#f1ae2b" d="M 581.085938 0 C 586.976562 0 592.472656 2.941406 595.738281 7.839844 L 807.042969 324.796875 C 810.644531 330.199219 810.980469 337.148438 807.914062 342.871094 C 804.851562 348.597656 798.886719 352.175781 792.390625 352.175781 L 694.742188 352.175781 L 694.742188 792.390625 C 694.742188 802.113281 686.859375 810 677.136719 810 L 488.640625 810 C 478.917969 810 471.03125 802.113281 471.03125 792.390625 L 471.03125 352.175781 L 369.78125 352.175781 C 363.289062 352.175781 357.324219 348.597656 354.257812 342.871094 C 351.195312 337.148438 351.53125 330.199219 355.132812 324.796875 L 566.4375 7.839844 C 569.699219 2.941406 575.199219 0 581.085938 0 Z M 402.6875 316.957031 L 488.640625 316.957031 C 498.363281 316.957031 506.25 324.839844 506.25 334.566406 L 506.25 774.78125 L 659.527344 774.78125 L 659.527344 334.566406 C 659.527344 324.839844 667.40625 316.957031 677.136719 316.957031 L 759.488281 316.957031 L 581.085938 49.351562 Z M 402.6875 316.957031 " fill-opacity="1" fill-rule="evenodd"/></svg>