<svg xmlns="http://www.w3.org/2000/svg" xmlns:xlink="http://www.w3.org/1999/xlink" width="1080" zoomAndPan="magnify" viewBox="0 0 810 809.999993" height="1080" preserveAspectRatio="xMidYMid meet" version="1.0"><defs><clipPath id="402fb1576f"><path d="M 48.246094 6.394531 L 761.496094 6.394531 L 761.496094 803.644531 L 48.246094 803.644531 Z M 48.246094 6.394531 " clip-rule="nonzero"/></clipPath></defs><g clip-path="url(#402fb1576f)"><path fill="#f1ae2b" d="M 229.636719 127.292969 L 277.515625 127.292969 L 277.515625 175.171875 L 229.636719 175.171875 Z M 344.546875 175.171875 L 392.425781 175.171875 L 392.425781 127.292969 L 344.546875 127.292969 Z M 229.636719 266.144531 L 277.515625 266.144531 L 277.515625 218.261719 L 229.636719 218.261719 Z M 344.546875 266.144531 L 392.425781 266.144531 L 392.425781 218.261719 L 344.546875 218.261719 Z M 229.636719 357.117188 L 277.515625 357.117188 L 277.515625 309.234375 L 229.636719 309.234375 Z M 344.546875 357.117188 L 392.425781 357.117188 L 392.425781 309.234375 L 344.546875 309.234375 Z M 229.636719 448.085938 L 277.515625 448.085938 L 277.515625 400.207031 L 229.636719 400.207031 Z M 344.546875 448.085938 L 392.425781 448.085938 L 392.425781 400.207031 L 344.546875 400.207031 Z M 229.636719 539.058594 L 277.515625 539.058594 L 277.515625 491.179688 L 229.636719 491.179688 Z M 344.546875 539.058594 L 392.425781 539.058594 L 392.425781 491.179688 L 344.546875 491.179688 Z M 229.636719 630.03125 L 277.515625 630.03125 L 277.515625 582.152344 L 229.636719 582.152344 Z M 344.546875 630.03125 L 392.425781 630.03125 L 392.425781 582.152344 L 344.546875 582.152344 Z M 544.445312 402.601562 L 592.328125 402.601562 L 592.328125 354.722656 L 544.445312 354.722656 Z M 544.445312 493.574219 L 592.328125 493.574219 L 592.328125 445.695312 L 544.445312 445.695312 Z M 544.445312 584.546875 L 592.328125 584.546875 L 592.328125 536.664062 L 544.445312 536.664062 Z M 544.445312 675.519531 L 592.328125 675.519531 L 592.328125 627.636719 L 544.445312 627.636719 Z M 761.703125 788.632812 C 761.703125 797.011719 755.117188 803.597656 746.738281 803.597656 L 63.25 803.597656 C 54.871094 803.597656 48.289062 797.011719 48.289062 788.632812 C 48.289062 780.253906 54.871094 773.671875 63.25 773.671875 L 135.671875 773.671875 L 135.671875 63.851562 C 135.671875 55.472656 142.253906 48.886719 150.632812 48.886719 L 201.503906 48.886719 L 201.503906 21.355469 C 201.503906 12.976562 208.089844 6.394531 216.46875 6.394531 L 405.59375 6.394531 C 413.972656 6.394531 420.554688 12.976562 420.554688 21.355469 L 420.554688 48.886719 L 471.429688 48.886719 C 479.808594 48.886719 486.390625 55.472656 486.390625 63.851562 L 486.390625 250.582031 L 659.957031 250.582031 C 668.335938 250.582031 674.917969 257.164062 674.917969 265.542969 L 674.917969 773.074219 L 747.339844 773.074219 C 755.117188 773.671875 761.703125 780.253906 761.703125 788.632812 Z M 361.902344 773.671875 L 361.902344 703.648438 L 260.160156 703.648438 L 260.160156 773.671875 Z M 644.996094 773.671875 L 644.996094 281.105469 L 486.390625 281.105469 L 486.390625 721.003906 L 456.464844 721.003906 L 456.464844 78.8125 L 267.9375 78.8125 L 267.9375 48.886719 L 390.03125 48.886719 L 390.03125 36.320312 L 231.429688 36.320312 L 231.429688 63.851562 C 231.429688 72.230469 224.847656 78.8125 216.46875 78.8125 L 165.59375 78.8125 L 165.59375 773.074219 L 230.234375 773.074219 L 230.234375 688.085938 C 230.234375 679.707031 236.816406 673.125 245.195312 673.125 L 376.867188 673.125 C 385.246094 673.125 391.828125 679.707031 391.828125 688.085938 L 391.828125 773.074219 L 644.996094 773.074219 Z M 644.996094 773.671875 " fill-opacity="1" fill-rule="nonzero"/></g></svg>