<svg xmlns="http://www.w3.org/2000/svg" xmlns:xlink="http://www.w3.org/1999/xlink" width="1080" zoomAndPan="magnify" viewBox="0 0 810 809.999993" height="1080" preserveAspectRatio="xMidYMid meet" version="1.0"><defs><clipPath id="8e4bf34586"><path d="M 265 0 L 797.15625 0 L 797.15625 697 L 265 697 Z M 265 0 " clip-rule="nonzero"/></clipPath></defs><path fill="#f1ae2b" d="M 732.523438 742.53125 L 519.449219 529.464844 C 547.027344 490.882812 563.316406 443.707031 563.316406 392.769531 C 563.316406 262.789062 457.574219 157.039062 327.601562 157.039062 C 197.625 157.039062 91.867188 262.789062 91.867188 392.769531 C 91.867188 522.746094 197.617188 628.492188 327.589844 628.492188 C 378.53125 628.492188 425.710938 612.199219 464.300781 584.625 L 677.363281 797.6875 C 684.976562 805.300781 694.957031 809.113281 704.933594 809.113281 C 714.917969 809.113281 724.910156 805.300781 732.523438 797.6875 C 747.742188 782.453125 747.742188 757.765625 732.523438 742.53125 Z M 112.671875 392.769531 C 112.671875 274.066406 208.886719 177.839844 327.589844 177.839844 C 446.296875 177.839844 542.511719 274.066406 542.511719 392.769531 C 542.511719 511.46875 446.296875 607.691406 327.589844 607.691406 C 208.886719 607.691406 112.671875 511.46875 112.671875 392.769531 Z M 112.671875 392.769531 " fill-opacity="1" fill-rule="nonzero"/><path fill="#f1ae2b" d="M 381.726562 612.273438 C 383.878906 625.121094 395.417969 634.460938 408.648438 633.425781 C 422.648438 632.335938 433.089844 620.105469 431.996094 606.113281 L 431.035156 593.765625 C 415.542969 601.757812 399.039062 608.015625 381.726562 612.273438 Z M 381.726562 612.273438 " fill-opacity="1" fill-rule="nonzero"/><path fill="#f1ae2b" d="M 405.609375 139.117188 C 387.902344 139.675781 373.886719 153.882812 373.246094 171.3125 C 396.859375 176.15625 419.089844 184.726562 439.394531 196.304688 L 440.109375 173.625 C 440.128906 172.957031 440.136719 172.191406 440.109375 171.515625 C 439.527344 153.03125 424.082031 138.53125 405.609375 139.117188 Z M 405.609375 139.117188 " fill-opacity="1" fill-rule="nonzero"/><path fill="#f1ae2b" d="M 395.257812 482.332031 C 412.914062 482.894531 427.699219 469.019531 428.257812 451.363281 L 435.320312 227.167969 C 411.921875 211.917969 385.117188 201.472656 356.257812 197.265625 L 364.28125 451.355469 C 364.839844 468.066406 378.304688 481.800781 395.257812 482.332031 Z M 395.257812 482.332031 " fill-opacity="1" fill-rule="nonzero"/><path fill="#f1ae2b" d="M 398.773438 532.753906 C 381.109375 531.375 365.664062 544.566406 364.28125 562.238281 L 362.328125 587.265625 C 386.050781 583.050781 408.3125 574.644531 428.289062 562.773438 L 428.257812 562.246094 C 427.046875 546.753906 414.742188 534.007812 398.773438 532.753906 Z M 398.773438 532.753906 " fill-opacity="1" fill-rule="nonzero"/><path fill="#f1ae2b" d="M 235.425781 217.636719 C 217.992188 226.824219 202.109375 238.511719 188.242188 252.261719 L 136.160156 342.484375 C 131.945312 358.542969 129.699219 375.390625 129.699219 392.769531 C 129.699219 395.351562 129.800781 397.894531 129.882812 400.441406 Z M 235.425781 217.636719 " fill-opacity="1" fill-rule="nonzero"/><path fill="#f1ae2b" d="M 86.191406 675.457031 C 68.59375 675.457031 52.199219 665.992188 43.410156 650.765625 C 34.601562 635.539062 34.601562 616.605469 43.410156 601.371094 L 116.746094 474.335938 C 113.378906 465.628906 110.515625 456.679688 108.222656 447.5 L 25.394531 590.972656 C 12.898438 612.625 12.898438 639.519531 25.394531 661.167969 C 37.890625 682.8125 61.191406 696.269531 86.191406 696.269531 L 553.882812 696.269531 L 533.085938 675.464844 L 86.191406 675.464844 Z M 86.191406 675.457031 " fill-opacity="1" fill-rule="nonzero"/><g clip-path="url(#8e4bf34586)"><path fill="#f1ae2b" d="M 785.992188 587.824219 L 467.398438 35.988281 C 454.894531 14.34375 431.605469 0.886719 406.609375 0.886719 C 381.59375 0.886719 358.3125 14.335938 345.804688 35.988281 L 265.285156 175.460938 C 274.257812 172.890625 283.433594 170.8125 292.824219 169.367188 L 363.820312 46.382812 C 372.617188 31.148438 389.015625 21.6875 406.609375 21.6875 C 424.191406 21.6875 440.585938 31.15625 449.386719 46.382812 L 768.136719 598.46875 L 768.445312 598.984375 C 773.738281 607.023438 776.53125 616.382812 776.53125 626.066406 C 776.53125 653.304688 754.378906 675.457031 727.132812 675.457031 L 687.511719 675.457031 L 708.316406 696.261719 L 727.128906 696.261719 C 765.839844 696.261719 797.328125 664.773438 797.328125 626.066406 C 797.328125 612.425781 793.402344 599.203125 785.992188 587.824219 Z M 785.992188 587.824219 " fill-opacity="1" fill-rule="nonzero"/></g></svg>