<svg xmlns="http://www.w3.org/2000/svg" xmlns:xlink="http://www.w3.org/1999/xlink" width="1080" zoomAndPan="magnify" viewBox="0 0 810 809.999993" height="1080" preserveAspectRatio="xMidYMid meet" version="1.0"><defs><clipPath id="d7ac4c6581"><path d="M 9.632812 772 L 810 772 L 810 804.910156 L 9.632812 804.910156 Z M 9.632812 772 " clip-rule="nonzero"/></clipPath></defs><path fill="#f1ae2b" d="M 156.71875 715.453125 L 42.25 715.453125 L 42.25 474.222656 L 156.71875 474.222656 Z M 25.976562 441.605469 C 16.953125 441.605469 9.632812 448.855469 9.632812 457.878906 L 9.632812 731.796875 C 9.632812 740.820312 16.953125 748.136719 25.976562 748.136719 L 173.0625 748.136719 C 182.085938 748.136719 189.402344 740.820312 189.402344 731.796875 L 189.332031 457.878906 C 189.332031 448.855469 182.085938 441.605469 173.0625 441.605469 L 25.976562 441.605469 " fill-opacity="1" fill-rule="nonzero"/><path fill="#f1ae2b" d="M 363.628906 715.453125 L 249.160156 715.453125 L 249.160156 339.785156 L 363.628906 339.785156 Z M 232.820312 307.171875 C 223.867188 307.171875 216.546875 314.488281 216.546875 323.441406 L 216.546875 731.796875 C 216.546875 740.820312 223.867188 748.136719 232.820312 748.136719 L 379.902344 748.136719 C 388.925781 748.136719 396.246094 740.820312 396.246094 731.796875 L 396.246094 323.441406 C 396.246094 314.488281 388.925781 307.171875 379.902344 307.171875 L 232.820312 307.171875 " fill-opacity="1" fill-rule="nonzero"/><path fill="#f1ae2b" d="M 456.003906 211.957031 L 570.472656 211.957031 L 570.472656 715.453125 L 456.003906 715.453125 Z M 439.730469 748.136719 L 586.816406 748.136719 C 595.769531 748.136719 603.15625 740.820312 603.15625 731.796875 L 603.15625 195.613281 C 603.15625 186.589844 595.769531 179.269531 586.816406 179.269531 L 439.730469 179.269531 C 430.707031 179.269531 423.386719 186.589844 423.386719 195.613281 L 423.386719 731.796875 C 423.386719 740.820312 430.707031 748.136719 439.730469 748.136719 " fill-opacity="1" fill-rule="nonzero"/><path fill="#f1ae2b" d="M 777.382812 715.453125 L 662.914062 715.453125 L 662.914062 70.484375 L 777.382812 70.484375 Z M 793.65625 37.871094 L 646.570312 37.871094 C 637.621094 37.871094 630.230469 45.191406 630.230469 54.214844 L 630.230469 731.796875 C 630.230469 740.820312 637.621094 748.136719 646.570312 748.136719 L 793.65625 748.136719 C 802.679688 748.136719 810 740.820312 810 731.796875 L 810 54.214844 C 810 45.191406 802.679688 37.871094 793.65625 37.871094 " fill-opacity="1" fill-rule="nonzero"/><path fill="#f1ae2b" d="M 415.21875 145.308594 C 417.136719 146.089844 419.195312 146.445312 421.183594 146.445312 C 427.652344 146.445312 433.832031 142.535156 436.390625 136.070312 L 476.109375 35.382812 L 476.183594 35.3125 C 476.253906 35.03125 476.324219 34.746094 476.394531 34.390625 C 476.394531 34.320312 476.464844 34.175781 476.464844 34.105469 C 476.679688 33.539062 476.820312 33.039062 476.964844 32.542969 C 476.964844 32.472656 477.035156 32.328125 477.035156 32.257812 C 477.105469 31.761719 477.105469 31.261719 477.175781 30.695312 C 477.175781 30.625 477.175781 30.480469 477.175781 30.410156 C 477.246094 30.054688 477.320312 29.769531 477.320312 29.417969 C 477.320312 29.417969 477.320312 29.34375 477.320312 29.34375 C 477.320312 29.273438 477.320312 29.203125 477.320312 29.132812 C 477.246094 28.5625 477.175781 28.066406 477.105469 27.570312 C 477.105469 27.070312 477.105469 26.574219 476.964844 26.148438 C 476.964844 26.078125 476.964844 26.003906 476.964844 25.933594 C 476.820312 25.4375 476.609375 24.941406 476.464844 24.441406 C 476.394531 24.300781 476.394531 24.15625 476.324219 24.085938 C 476.253906 23.730469 476.183594 23.375 476.039062 23.09375 C 476.039062 23.019531 476.039062 22.949219 475.96875 22.878906 C 475.828125 22.453125 475.472656 22.027344 475.257812 21.601562 C 475.046875 21.101562 474.832031 20.675781 474.476562 20.179688 C 474.476562 20.179688 474.476562 20.179688 474.476562 20.109375 C 474.121094 19.679688 473.765625 19.253906 473.339844 18.828125 C 473.054688 18.472656 472.84375 18.117188 472.488281 17.761719 C 472.488281 17.691406 472.417969 17.691406 472.417969 17.621094 C 472.273438 17.550781 472.203125 17.480469 472.0625 17.40625 C 471.777344 17.125 471.492188 16.910156 471.207031 16.695312 C 470.78125 16.34375 470.496094 16.058594 470 15.773438 C 470 15.703125 469.929688 15.703125 469.859375 15.632812 C 469.503906 15.347656 469.078125 15.207031 468.648438 14.992188 C 468.222656 14.707031 467.726562 14.421875 467.230469 14.210938 C 467.15625 14.210938 467.085938 14.210938 467.015625 14.140625 C 466.660156 13.996094 466.375 13.996094 466.09375 13.855469 C 465.949219 13.855469 465.878906 13.785156 465.808594 13.785156 C 465.238281 13.640625 464.742188 13.429688 464.171875 13.285156 C 464.101562 13.285156 464.03125 13.285156 463.890625 13.285156 C 463.535156 13.214844 463.035156 13.214844 462.683594 13.144531 C 462.539062 13.144531 462.328125 13.144531 462.183594 13.074219 C 461.828125 13.074219 461.472656 13.003906 461.117188 13.003906 L 352.6875 12.363281 L 352.617188 12.363281 C 343.664062 12.363281 336.34375 19.609375 336.34375 28.5625 C 336.273438 37.585938 343.523438 44.976562 352.546875 44.976562 L 408.113281 45.332031 L 16.8125 309.941406 C 9.351562 314.988281 7.359375 325.148438 12.476562 332.609375 C 15.601562 337.296875 20.71875 339.785156 25.976562 339.785156 C 29.101562 339.785156 32.300781 338.859375 35.070312 337.011719 L 426.445312 72.332031 L 405.980469 124.132812 C 402.710938 132.515625 406.832031 141.96875 415.21875 145.308594 " fill-opacity="1" fill-rule="nonzero"/><g clip-path="url(#d7ac4c6581)"><path fill="#f1ae2b" d="M 793.65625 772.226562 L 25.976562 772.226562 C 16.953125 772.226562 9.632812 779.542969 9.632812 788.570312 C 9.632812 797.59375 16.953125 804.910156 25.976562 804.910156 L 793.65625 804.910156 C 802.679688 804.910156 810 797.59375 810 788.570312 C 810 779.542969 802.679688 772.226562 793.65625 772.226562 " fill-opacity="1" fill-rule="nonzero"/></g></svg>