<svg xmlns="http://www.w3.org/2000/svg" xmlns:xlink="http://www.w3.org/1999/xlink" width="1080" zoomAndPan="magnify" viewBox="0 0 810 809.999993" height="1080" preserveAspectRatio="xMidYMid meet" version="1.0"><defs><clipPath id="7b236abd5c"><path d="M 389 9.851562 L 421 9.851562 L 421 41 L 389 41 Z M 389 9.851562 " clip-rule="nonzero"/></clipPath><clipPath id="95e531bebd"><path d="M 111.722656 18 L 698.101562 18 L 698.101562 800.140625 L 111.722656 800.140625 Z M 111.722656 18 " clip-rule="nonzero"/></clipPath></defs><path fill="#f1ae2b" d="M 173.460938 303.121094 C 173.460938 430.789062 277.324219 534.652344 404.992188 534.652344 C 532.65625 534.652344 636.523438 430.789062 636.523438 303.121094 C 636.523438 175.453125 532.65625 71.589844 404.992188 71.589844 C 277.324219 71.589844 173.460938 175.453125 173.460938 303.121094 Z M 404.992188 102.460938 C 515.640625 102.460938 605.652344 192.480469 605.652344 303.121094 C 605.652344 413.769531 515.640625 503.78125 404.992188 503.78125 C 294.347656 503.78125 204.332031 413.769531 204.332031 303.121094 C 204.332031 192.480469 294.347656 102.460938 404.992188 102.460938 " fill-opacity="1" fill-rule="nonzero"/><path fill="#f1ae2b" d="M 262.042969 275.601562 L 321.875 334.554688 L 308.109375 417.40625 C 307.152344 423.175781 309.535156 428.988281 314.265625 432.421875 C 318.992188 435.859375 325.261719 436.324219 330.453125 433.636719 L 404.992188 394.925781 L 479.527344 433.636719 C 484.675781 436.304688 490.941406 435.890625 495.710938 432.421875 C 500.445312 428.988281 502.820312 423.171875 501.863281 417.40625 L 488.101562 334.554688 L 547.929688 275.601562 C 552.097656 271.503906 553.585938 265.402344 551.777344 259.835938 C 549.96875 254.277344 545.175781 250.222656 539.390625 249.34375 L 456.363281 236.84375 L 418.792969 161.710938 C 416.1875 156.484375 410.832031 153.183594 404.992188 153.183594 C 399.144531 153.183594 393.804688 156.484375 391.1875 161.710938 L 353.617188 236.84375 L 270.589844 249.34375 C 264.804688 250.210938 260.011719 254.277344 258.203125 259.835938 C 256.386719 265.402344 257.886719 271.503906 262.042969 275.601562 Z M 366.140625 266.183594 C 371.101562 265.433594 375.398438 262.316406 377.648438 257.820312 L 404.992188 203.132812 L 432.339844 257.820312 C 434.585938 262.316406 438.875 265.433594 443.847656 266.183594 L 504.277344 275.277344 L 460.726562 318.175781 C 457.152344 321.707031 455.507812 326.75 456.332031 331.707031 L 466.351562 392.003906 L 412.097656 363.839844 C 409.875 362.683594 407.429688 362.101562 404.992188 362.101562 C 402.546875 362.101562 400.101562 362.683594 397.875 363.839844 L 343.621094 392.003906 L 353.640625 331.707031 C 354.46875 326.75 352.828125 321.707031 349.246094 318.175781 L 305.699219 275.277344 L 366.140625 266.183594 " fill-opacity="1" fill-rule="nonzero"/><g clip-path="url(#7b236abd5c)"><path fill="#f1ae2b" d="M 420.429688 25.285156 C 420.429688 33.8125 413.519531 40.722656 404.992188 40.722656 C 396.464844 40.722656 389.558594 33.8125 389.558594 25.285156 C 389.558594 16.757812 396.464844 9.851562 404.992188 9.851562 C 413.519531 9.851562 420.429688 16.757812 420.429688 25.285156 " fill-opacity="1" fill-rule="nonzero"/></g><g clip-path="url(#95e531bebd)"><path fill="#f1ae2b" d="M 332.25 18.949219 C 202.402344 52.09375 111.722656 168.945312 111.722656 303.121094 C 111.722656 386.453125 146.757812 464.976562 208.265625 520.585938 L 115.273438 684.472656 C 112.285156 689.746094 112.652344 696.285156 116.222656 701.179688 C 119.792969 706.078125 125.898438 708.433594 131.835938 707.199219 L 237.4375 685.277344 L 274.558594 789.867188 C 276.570312 795.558594 281.726562 799.539062 287.738281 800.078125 C 293.757812 800.613281 299.53125 797.582031 302.515625 792.328125 L 404.992188 612.175781 L 507.464844 792.328125 C 510.226562 797.183594 515.363281 800.132812 520.867188 800.132812 C 521.324219 800.132812 521.78125 800.113281 522.234375 800.078125 C 528.253906 799.539062 533.410156 795.550781 535.425781 789.867188 L 572.539062 685.277344 L 678.144531 707.199219 C 684.074219 708.429688 690.183594 706.078125 693.75 701.179688 C 697.324219 696.285156 697.695312 689.746094 694.707031 684.472656 L 601.714844 520.585938 C 663.21875 464.976562 698.257812 386.453125 698.257812 303.121094 C 698.257812 168.945312 607.574219 52.09375 477.738281 18.949219 C 469.46875 16.839844 461.074219 21.820312 458.960938 30.082031 C 456.847656 38.34375 461.839844 46.753906 470.097656 48.859375 C 586.257812 78.511719 667.394531 183.070312 667.394531 303.121094 C 667.394531 449.230469 548.726562 565.523438 404.992188 565.523438 C 261.152344 565.523438 142.59375 449.132812 142.59375 303.121094 C 142.59375 183.070312 223.71875 78.511719 339.878906 48.859375 C 348.140625 46.753906 353.128906 38.34375 351.023438 30.082031 C 348.914062 21.820312 340.515625 16.839844 332.25 18.949219 Z M 292.363281 747.746094 L 262.03125 662.265625 C 259.449219 654.992188 251.90625 650.742188 244.347656 652.3125 L 158.953125 670.042969 L 232.550781 540.339844 C 275.460938 571.53125 326.273438 590.539062 379.109375 595.238281 Z M 565.625 652.3125 C 558.082031 650.742188 550.523438 654.992188 547.941406 662.265625 L 517.613281 747.746094 L 430.867188 595.238281 C 483.714844 590.539062 534.515625 571.535156 577.4375 540.339844 L 651.03125 670.042969 L 565.625 652.3125 " fill-opacity="1" fill-rule="nonzero"/></g></svg>